<mxfile host="65bd71144e">
    <diagram name="Allgemein" id="euBj5xrBh4o_RF6xaW2p">
        <mxGraphModel dx="1864" dy="860" grid="1" gridSize="10" guides="1" tooltips="1" connect="1" arrows="1" fold="1" page="1" pageScale="1" pageWidth="827" pageHeight="1169" math="0" shadow="0">
            <root>
                <mxCell id="0"/>
                <mxCell id="1" parent="0"/>
                <UserObject label="&lt;div style=&quot;font-size: 1px&quot;&gt;&lt;font style=&quot;font-size: 16.93px; color: rgb(0, 0, 0); direction: ltr; letter-spacing: 0px; line-height: 120%; opacity: 1;&quot;&gt;&lt;b style=&quot;&quot;&gt;VZD-FHIR-Directory&lt;br&gt;&lt;/b&gt;&lt;/font&gt;&lt;/div&gt;" tags="Hintergrund" id="82">
                    <mxCell style="verticalAlign=top;align=center;vsdxID=1;fillColor=#f5f5f5;shape=stencil(nZBLDoAgDERP0z3SIyjew0SURgSD+Lu9kMZoXLhwN9O+tukAlrNpJg1SzDH4QW/URgNYgZTkjA4UkwJUgGXng+6DX1zLfmoymdXo17xh5zmRJ6Q42BWCfc2oJfdAr+Yv+AP9Cb7OJ3H/2JG1HNGz/84klThPVCc=);strokeColor=#666666;points=[];labelBackgroundColor=none;rounded=0;html=1;whiteSpace=wrap;fontColor=#333333;" parent="1" vertex="1">
                        <mxGeometry x="340" y="35" width="376" height="121" as="geometry"/>
                    </mxCell>
                </UserObject>
                <mxCell id="83" style="edgeStyle=none;html=1;entryX=0.5;entryY=0;entryDx=0;entryDy=0;endArrow=none;endFill=0;exitX=0.511;exitY=0.996;exitDx=0;exitDy=0;exitPerimeter=0;" parent="1" source="84" target="138" edge="1">
                    <mxGeometry relative="1" as="geometry">
                        <mxPoint x="530" y="470" as="sourcePoint"/>
                    </mxGeometry>
                </mxCell>
                <UserObject label="&lt;div style=&quot;font-size: 1px&quot;&gt;&lt;font style=&quot;font-size: 16.93px; color: rgb(0, 0, 0); direction: ltr; letter-spacing: 0px; line-height: 120%; opacity: 1;&quot;&gt;&lt;b style=&quot;&quot;&gt;     TI-M-Fachdienst&lt;br&gt;&lt;/b&gt;&lt;/font&gt;&lt;/div&gt;" tags="Hintergrund" id="84">
                    <mxCell style="verticalAlign=top;align=center;vsdxID=2;fillColor=#dae8fc;shape=stencil(nZBLDoAgDERP0z3SIyjew0SURgSD+Lu9kMZoXLhwN9O+tukAlrNpJg1SzDH4QW/URgNYgZTkjA4UkwJUgGXng+6DX1zLfmoymdXo17xh5zmRJ6Q42BWCfc2oJfdAr+Yv+AP9Cb7OJ3H/2JG1HNGz/84klThPVCc=);points=[];labelBackgroundColor=none;rounded=0;html=1;whiteSpace=wrap;strokeColor=#6c8ebf;" parent="1" vertex="1">
                        <mxGeometry x="340" y="215" width="377" height="255" as="geometry"/>
                    </mxCell>
                </UserObject>
                <UserObject label="&lt;div style=&quot;font-size: 1px&quot;&gt;&lt;font style=&quot;font-size:14.11px;font-family:Arial;color:#000000;direction:ltr;letter-spacing:0px;line-height:120%;opacity:1&quot;&gt;Registrierungs-&lt;br/&gt;Dienst&lt;br/&gt;&lt;/font&gt;&lt;/div&gt;" tags="Hintergrund" id="85">
                    <mxCell style="verticalAlign=middle;align=center;vsdxID=6;fillColor=#f2f2f2;gradientColor=none;shape=stencil(nZBLDoAgDERP0z3SIyjew0SURgSD+Lu9kMZoXLhwN9O+tukAlrNpJg1SzDH4QW/URgNYgZTkjA4UkwJUgGXng+6DX1zLfmoymdXo17xh5zmRJ6Q42BWCfc2oJfdAr+Yv+AP9Cb7OJ3H/2JG1HNGz/84klThPVCc=);strokeColor=#000000;strokeWidth=2;spacingTop=-1;spacingBottom=-1;spacingLeft=-1;spacingRight=-1;points=[[0.5,0,0],[1,0.5,0],[0.5,0.5,0],[0.5,0.5,0]];labelBackgroundColor=none;rounded=0;html=1;whiteSpace=wrap;" parent="1" vertex="1">
                        <mxGeometry x="361" y="276" width="108" height="50" as="geometry"/>
                    </mxCell>
                </UserObject>
                <UserObject label="&lt;div style=&quot;font-size: 1px&quot;&gt;&lt;font style=&quot;font-size:14.11px;font-family:Arial;color:#000000;direction:ltr;letter-spacing:0px;line-height:120%;opacity:1&quot;&gt;&lt;b&gt;TI-M-&lt;/b&gt;&lt;/font&gt;&lt;b style=&quot;color: rgb(0, 0, 0); font-family: Arial; font-size: 14.11px; letter-spacing: 0px; background-color: initial;&quot;&gt;Client&lt;/b&gt;&lt;/div&gt;" tags="Hintergrund" id="86">
                    <mxCell style="verticalAlign=middle;align=center;vsdxID=7;fillColor=#f5f5f5;shape=stencil(nZBLDoAgDERP0z3SIyjew0SURgSD+Lu9kMZoXLhwN9O+tukAlrNpJg1SzDH4QW/URgNYgZTkjA4UkwJUgGXng+6DX1zLfmoymdXo17xh5zmRJ6Q42BWCfc2oJfdAr+Yv+AP9Cb7OJ3H/2JG1HNGz/84klThPVCc=);strokeColor=#666666;strokeWidth=2;spacingTop=-1;spacingBottom=-1;spacingLeft=-1;spacingRight=-1;points=[[0.5,0,0],[1,0.5,0],[0.5,0.5,0],[0.5,0.5,0]];labelBackgroundColor=none;rounded=0;html=1;whiteSpace=wrap;fontColor=#333333;" parent="1" vertex="1">
                        <mxGeometry x="56" y="35" width="104" height="320" as="geometry"/>
                    </mxCell>
                </UserObject>
                <UserObject label="&lt;div style=&quot;font-size: 1px&quot;&gt;&lt;font style=&quot;font-size:14.11px;font-family:Arial;color:#000000;direction:ltr;letter-spacing:0px;line-height:120%;opacity:1&quot;&gt;Push-&lt;br/&gt;Gateway&lt;br/&gt;&lt;/font&gt;&lt;/div&gt;" tags="Hintergrund" id="87">
                    <mxCell style="verticalAlign=middle;align=center;vsdxID=9;fillColor=#f5f5f5;shape=stencil(nZBLDoAgDERP0z3SIyjew0SURgSD+Lu9kMZoXLhwN9O+tukAlrNpJg1SzDH4QW/URgNYgZTkjA4UkwJUgGXng+6DX1zLfmoymdXo17xh5zmRJ6Q42BWCfc2oJfdAr+Yv+AP9Cb7OJ3H/2JG1HNGz/84klThPVCc=);strokeWidth=2;spacingTop=-1;spacingBottom=-1;spacingLeft=-1;spacingRight=-1;points=[[0.5,0,0],[1,0.5,0],[0.5,0.5,0],[0.5,0.5,0]];labelBackgroundColor=none;rounded=0;html=1;whiteSpace=wrap;strokeColor=#666666;fontColor=#333333;" parent="1" vertex="1">
                        <mxGeometry x="200" y="238" width="105" height="32.5" as="geometry"/>
                    </mxCell>
                </UserObject>
                <UserObject label="&lt;div style=&quot;font-size: 1px&quot;&gt;&lt;font style=&quot;font-size:14.11px;font-family:Arial;color:#000000;direction:ltr;letter-spacing:0px;line-height:120%;opacity:1&quot;&gt;FHIR-Directory&lt;br/&gt;&lt;/font&gt;&lt;/div&gt;" tags="Hintergrund" id="88">
                    <mxCell style="verticalAlign=middle;align=center;vsdxID=10;fillColor=#f5f5f5;shape=stencil(nZE9DsIwDIVP4xWFWAydS7kAJ4iIIRYhqdLwe3rSukhRB4Zmst/7YkvPgO3gTE+g1ZBTvNKTbXaAe9Cag6PEuVSAHWB7jokuKd6Dlb43hdRqUsjKn+1Ia2XS6cgfEg2bTVO93czIkFt8jMtfgiqx3vMwJf1BUM+hQn/mKvgPuhJcrC/FFI8Ex95LurW/jLNIcgrsvg==);strokeColor=#666666;strokeWidth=2;spacingTop=2;spacingBottom=2;spacingLeft=3;spacingRight=3;points=[[0.5,0,0],[1,0.5,0],[0.5,0.5,0],[0.5,0.5,0]];labelBackgroundColor=none;rounded=1;html=1;whiteSpace=wrap;fontColor=#333333;" parent="1" vertex="1">
                        <mxGeometry x="490" y="92" width="218.5" height="50" as="geometry"/>
                    </mxCell>
                </UserObject>
                <UserObject label="&lt;div style=&quot;font-size: 1px&quot;&gt;&lt;font style=&quot;font-size:14.11px;font-family:Arial;color:#000000;direction:ltr;letter-spacing:0px;line-height:120%;opacity:1&quot;&gt;FHIR-Proxy&lt;br/&gt;&lt;/font&gt;&lt;/div&gt;" tags="Hintergrund" id="89">
                    <mxCell style="verticalAlign=middle;align=center;vsdxID=11;fillColor=#f5f5f5;shape=stencil(nZBLDoAgDERP0z3SIyjew0SURgSD+Lu9kMZoXLhwN9O+tukAlrNpJg1SzDH4QW/URgNYgZTkjA4UkwJUgGXng+6DX1zLfmoymdXo17xh5zmRJ6Q42BWCfc2oJfdAr+Yv+AP9Cb7OJ3H/2JG1HNGz/84klThPVCc=);strokeColor=#666666;strokeWidth=2;spacingTop=-1;spacingBottom=-1;spacingLeft=-1;spacingRight=-1;points=[[0.5,0,0],[1,0.5,0],[0.5,0.5,0],[0.5,0.5,0]];labelBackgroundColor=none;rounded=0;html=1;whiteSpace=wrap;fontColor=#333333;" parent="1" vertex="1">
                        <mxGeometry x="380" y="110" width="70" height="32" as="geometry"/>
                    </mxCell>
                </UserObject>
                <UserObject label="&lt;div style=&quot;font-size: 1px&quot;&gt;&lt;font style=&quot;font-size: 14.11px; color: rgb(0, 0, 0); direction: ltr; letter-spacing: 0px; line-height: 120%; opacity: 1;&quot;&gt;&lt;b style=&quot;&quot;&gt;IDP-Dienst&lt;br&gt;&lt;/b&gt;&lt;/font&gt;&lt;/div&gt;" tags="Hintergrund" id="90">
                    <mxCell style="verticalAlign=middle;align=center;vsdxID=12;shape=stencil(nZBLDoAgDERP0z3SIyjew0SURgSD+Lu9kMZoXLhwN9O+tukAlrNpJg1SzDH4QW/URgNYgZTkjA4UkwJUgGXng+6DX1zLfmoymdXo17xh5zmRJ6Q42BWCfc2oJfdAr+Yv+AP9Cb7OJ3H/2JG1HNGz/84klThPVCc=);strokeWidth=2;spacingTop=-1;spacingBottom=-1;spacingLeft=-1;spacingRight=-1;points=[[0.5,0,0],[1,0.5,0],[0.5,0.5,0],[0.5,0.5,0]];labelBackgroundColor=none;rounded=0;html=1;whiteSpace=wrap;fillColor=#f5f5f5;strokeColor=#666666;fontColor=#333333;" parent="1" vertex="1">
                        <mxGeometry x="56" y="405" width="104" height="120" as="geometry"/>
                    </mxCell>
                </UserObject>
                <UserObject label="&lt;div style=&quot;font-size: 1px&quot;&gt;&lt;font style=&quot;font-size:14.11px;font-family:Arial;color:#000000;direction:ltr;letter-spacing:0px;line-height:120%;opacity:1&quot;&gt;OAuth&lt;br/&gt;&lt;/font&gt;&lt;/div&gt;" tags="Hintergrund" id="91">
                    <mxCell style="verticalAlign=middle;align=center;vsdxID=33;fillColor=#f2f2f2;gradientColor=none;shape=stencil(nZE9DsIwDIVP4xWFWAydS7kAJ4iIIRYhqdLwe3rSukhRB4Zmst/7YkvPgO3gTE+g1ZBTvNKTbXaAe9Cag6PEuVSAHWB7jokuKd6Dlb43hdRqUsjKn+1Ia2XS6cgfEg2bTVO93czIkFt8jMtfgiqx3vMwJf1BUM+hQn/mKvgPuhJcrC/FFI8Ex95LurW/jLNIcgrsvg==);strokeColor=#000000;strokeWidth=2;spacingTop=2;spacingBottom=2;spacingLeft=3;spacingRight=3;points=[[0.5,0,0],[1,0.5,0],[0.5,0.5,0],[0.5,0.5,0]];labelBackgroundColor=none;rounded=1;html=1;whiteSpace=wrap;" parent="1" vertex="1">
                        <mxGeometry x="642" y="48" width="61" height="28" as="geometry"/>
                    </mxCell>
                </UserObject>
                <UserObject label="&lt;div style=&quot;font-size: 1px&quot;&gt;&lt;font style=&quot;font-size:14.11px;font-family:Arial;color:#000000;direction:ltr;letter-spacing:0px;line-height:120%;opacity:1&quot;&gt;Auth-Service&lt;br/&gt;&lt;/font&gt;&lt;/div&gt;" tags="Hintergrund" id="92">
                    <mxCell style="verticalAlign=middle;align=center;vsdxID=40;fillColor=#f5f5f5;shape=stencil(nZE9DsIwDIVP4xWFWAydS7kAJ4iIIRYhqdLwe3rSukhRB4Zmst/7YkvPgO3gTE+g1ZBTvNKTbXaAe9Cag6PEuVSAHWB7jokuKd6Dlb43hdRqUsjKn+1Ia2XS6cgfEg2bTVO93czIkFt8jMtfgiqx3vMwJf1BUM+hQn/mKvgPuhJcrC/FFI8Ex95LurW/jLNIcgrsvg==);strokeColor=#666666;strokeWidth=2;spacingTop=2;spacingBottom=2;spacingLeft=3;spacingRight=3;points=[[0.5,0,0],[1,0.5,0],[0.5,0.5,0],[0.5,0.5,0]];labelBackgroundColor=none;rounded=1;html=1;whiteSpace=wrap;fontColor=#333333;" parent="1" vertex="1">
                        <mxGeometry x="375" y="70" width="80" height="31" as="geometry"/>
                    </mxCell>
                </UserObject>
                <UserObject label="&lt;div style=&quot;font-size: 1px&quot;&gt;&lt;/div&gt;" tags="Hintergrund" id="93">
                    <mxCell style="verticalAlign=top;align=center;vsdxID=41;fillColor=#d8d8d8;gradientColor=none;shape=stencil(nZBLDoAgDERP0z3SIyjew0SURgSD+Lu9kMZoXLhwN9O+tukAlrNpJg1SzDH4QW/URgNYgZTkjA4UkwJUgGXng+6DX1zLfmoymdXo17xh5zmRJ6Q42BWCfc2oJfdAr+Yv+AP9Cb7OJ3H/2JG1HNGz/84klThPVCc=);strokeWidth=2;points=[];labelBackgroundColor=none;rounded=0;html=1;whiteSpace=wrap;" parent="1" vertex="1">
                        <mxGeometry x="508" y="260" width="198" height="158" as="geometry"/>
                    </mxCell>
                </UserObject>
                <UserObject label="&lt;div style=&quot;font-size: 1px&quot;&gt;&lt;/div&gt;" tags="Hintergrund" id="94">
                    <mxCell style="verticalAlign=top;align=center;vsdxID=42;fillColor=#d8d8d8;gradientColor=none;shape=stencil(nZBLDoAgDERP0z3SIyjew0SURgSD+Lu9kMZoXLhwN9O+tukAlrNpJg1SzDH4QW/URgNYgZTkjA4UkwJUgGXng+6DX1zLfmoymdXo17xh5zmRJ6Q42BWCfc2oJfdAr+Yv+AP9Cb7OJ3H/2JG1HNGz/84klThPVCc=);strokeWidth=2;points=[];labelBackgroundColor=none;rounded=0;html=1;whiteSpace=wrap;" parent="1" vertex="1">
                        <mxGeometry x="499" y="268" width="198" height="158" as="geometry"/>
                    </mxCell>
                </UserObject>
                <UserObject label="&lt;div style=&quot;font-size: 1px&quot;&gt;&lt;font style=&quot;font-size:14.11px;font-family:Arial;color:#000000;direction:ltr;letter-spacing:0px;line-height:120%;opacity:1&quot;&gt;Messenger-Service&lt;br/&gt;&lt;/font&gt;&lt;/div&gt;" tags="Hintergrund" id="95">
                    <mxCell style="verticalAlign=top;align=center;vsdxID=43;fillColor=#d8d8d8;gradientColor=none;shape=stencil(nZBLDoAgDERP0z3SIyjew0SURgSD+Lu9kMZoXLhwN9O+tukAlrNpJg1SzDH4QW/URgNYgZTkjA4UkwJUgGXng+6DX1zLfmoymdXo17xh5zmRJ6Q42BWCfc2oJfdAr+Yv+AP9Cb7OJ3H/2JG1HNGz/84klThPVCc=);strokeWidth=2;points=[];labelBackgroundColor=none;rounded=0;html=1;whiteSpace=wrap;" parent="1" vertex="1">
                        <mxGeometry x="490" y="276" width="198" height="158" as="geometry"/>
                    </mxCell>
                </UserObject>
                <UserObject label="&lt;div style=&quot;font-size: 1px&quot;&gt;&lt;font style=&quot;font-size:14.11px;font-family:Arial;color:#000000;direction:ltr;letter-spacing:0px;line-height:120%;opacity:1&quot;&gt;Messenger-&lt;br/&gt;Proxy&lt;br/&gt;&lt;/font&gt;&lt;/div&gt;" tags="Hintergrund" id="96">
                    <mxCell style="verticalAlign=middle;align=center;vsdxID=44;fillColor=#f5f5f5;shape=stencil(nZBLDoAgDERP0z3SIyjew0SURgSD+Lu9kMZoXLhwN9O+tukAlrNpJg1SzDH4QW/URgNYgZTkjA4UkwJUgGXng+6DX1zLfmoymdXo17xh5zmRJ6Q42BWCfc2oJfdAr+Yv+AP9Cb7OJ3H/2JG1HNGz/84klThPVCc=);strokeColor=#666666;strokeWidth=2;spacingTop=-1;spacingBottom=-1;spacingLeft=-1;spacingRight=-1;points=[[0.5,0,0],[1,0.5,0],[0.5,0.5,0],[0.5,0.5,0]];labelBackgroundColor=none;rounded=0;html=1;whiteSpace=wrap;fontColor=#333333;" parent="1" vertex="1">
                        <mxGeometry x="517" y="314" width="146" height="50" as="geometry"/>
                    </mxCell>
                </UserObject>
                <UserObject label="&lt;div style=&quot;font-size: 1px&quot;&gt;&lt;font style=&quot;font-size:14.11px;font-family:Arial;color:#000000;direction:ltr;letter-spacing:0px;line-height:120%;opacity:1&quot;&gt;Matrix-&lt;br/&gt;Homeserver&lt;br/&gt;&lt;/font&gt;&lt;/div&gt;" tags="Hintergrund" id="97">
                    <mxCell style="verticalAlign=middle;align=center;vsdxID=45;fillColor=#f5f5f5;shape=stencil(nZBLDoAgDERP0z3SIyjew0SURgSD+Lu9kMZoXLhwN9O+tukAlrNpJg1SzDH4QW/URgNYgZTkjA4UkwJUgGXng+6DX1zLfmoymdXo17xh5zmRJ6Q42BWCfc2oJfdAr+Yv+AP9Cb7OJ3H/2JG1HNGz/84klThPVCc=);strokeWidth=2;spacingTop=-1;spacingBottom=-1;spacingLeft=-1;spacingRight=-1;points=[[0.5,0,0],[1,0.5,0],[0.5,0.5,0],[0.5,0.5,0]];labelBackgroundColor=none;rounded=0;html=1;whiteSpace=wrap;strokeColor=#666666;fontColor=#333333;" parent="1" vertex="1">
                        <mxGeometry x="517" y="374" width="146" height="50" as="geometry"/>
                    </mxCell>
                </UserObject>
                <mxCell id="98" parent="1" vertex="1">
                    <mxGeometry x="176" y="425" as="geometry"/>
                </mxCell>
                <mxCell id="99" value="" style="group" parent="1" vertex="1" connectable="0">
                    <mxGeometry x="156" y="320" width="40" height="29" as="geometry"/>
                </mxCell>
                <mxCell id="100" value="R" style="text;html=1;strokeColor=none;fillColor=none;align=center;verticalAlign=middle;whiteSpace=wrap;overflow=hidden;fontFamily=Helvetica;fontSize=10;fontColor=#000000;fontStyle=1" parent="99" vertex="1">
                    <mxGeometry width="40" height="20" as="geometry"/>
                </mxCell>
                <mxCell id="101" value="" style="ellipse;whiteSpace=wrap;html=1;strokeColor=#1C1C1C;fillColor=none;fontFamily=Tahoma;fontSize=14;fontColor=#525252;align=center;strokeWidth=2;" parent="99" vertex="1">
                    <mxGeometry x="15" y="19" width="10" height="10" as="geometry"/>
                </mxCell>
                <mxCell id="102" style="edgeStyle=none;rounded=0;html=1;startArrow=none;startFill=0;endArrow=classic;endFill=1;jettySize=auto;orthogonalLoop=1;strokeColor=#000000;fontFamily=Helvetica;fontSize=10;fontColor=#000000;targetPerimeterSpacing=0;endSize=8;sourcePerimeterSpacing=0;startSize=0;" parent="99" edge="1">
                    <mxGeometry relative="1" as="geometry">
                        <mxPoint x="36" y="10" as="targetPoint"/>
                        <mxPoint x="28" y="10" as="sourcePoint"/>
                    </mxGeometry>
                </mxCell>
                <mxCell id="103" value="" style="group" parent="1" vertex="1" connectable="0">
                    <mxGeometry x="156" y="81" width="40" height="29" as="geometry"/>
                </mxCell>
                <mxCell id="104" value="R" style="text;html=1;strokeColor=none;fillColor=none;align=center;verticalAlign=middle;whiteSpace=wrap;overflow=hidden;fontFamily=Helvetica;fontSize=10;fontColor=#000000;fontStyle=1" parent="103" vertex="1">
                    <mxGeometry width="40" height="20" as="geometry"/>
                </mxCell>
                <mxCell id="105" value="" style="ellipse;whiteSpace=wrap;html=1;strokeColor=#1C1C1C;fillColor=none;fontFamily=Tahoma;fontSize=14;fontColor=#525252;align=center;strokeWidth=2;" parent="103" vertex="1">
                    <mxGeometry x="15" y="19" width="10" height="10" as="geometry"/>
                </mxCell>
                <mxCell id="106" style="edgeStyle=none;rounded=0;html=1;startArrow=none;startFill=0;endArrow=classic;endFill=1;jettySize=auto;orthogonalLoop=1;strokeColor=#000000;fontFamily=Helvetica;fontSize=10;fontColor=#000000;targetPerimeterSpacing=0;endSize=8;sourcePerimeterSpacing=0;startSize=0;" parent="103" edge="1">
                    <mxGeometry relative="1" as="geometry">
                        <mxPoint x="36" y="10" as="targetPoint"/>
                        <mxPoint x="28" y="10" as="sourcePoint"/>
                    </mxGeometry>
                </mxCell>
                <mxCell id="107" value="" style="group;rotation=-180;" parent="1" vertex="1" connectable="0">
                    <mxGeometry x="518" y="180" width="40" height="20" as="geometry"/>
                </mxCell>
                <mxCell id="108" value="" style="group;rotation=-180;" parent="107" vertex="1" connectable="0">
                    <mxGeometry width="40" height="20" as="geometry"/>
                </mxCell>
                <mxCell id="109" value="" style="group;rotation=-180;" parent="108" vertex="1" connectable="0">
                    <mxGeometry width="40" height="20" as="geometry"/>
                </mxCell>
                <mxCell id="110" value="" style="endArrow=classic;html=1;strokeColor=#000000;fontFamily=Helvetica;fontSize=14;fontColor=#525252;rounded=0;" parent="109" edge="1">
                    <mxGeometry width="50" height="50" relative="1" as="geometry">
                        <mxPoint x="20" y="1" as="sourcePoint"/>
                        <mxPoint x="20" y="-4" as="targetPoint"/>
                    </mxGeometry>
                </mxCell>
                <mxCell id="111" value="" style="ellipse;whiteSpace=wrap;html=1;strokeColor=#1C1C1C;fillColor=none;fontFamily=Tahoma;fontSize=14;fontColor=#525252;align=center;strokeWidth=2;rotation=-180;" parent="109" vertex="1">
                    <mxGeometry width="10" height="10" as="geometry"/>
                </mxCell>
                <mxCell id="112" value="R" style="text;html=1;strokeColor=none;fillColor=none;align=center;verticalAlign=middle;whiteSpace=wrap;overflow=hidden;fontFamily=Helvetica;fontSize=10;fontColor=#000000;fontStyle=1;rotation=0;" parent="109" vertex="1">
                    <mxGeometry width="40" height="20" as="geometry"/>
                </mxCell>
                <mxCell id="113" style="edgeStyle=orthogonalEdgeStyle;rounded=0;orthogonalLoop=1;jettySize=auto;html=1;exitX=1;exitY=0.5;exitDx=0;exitDy=0;entryX=0;entryY=0.583;entryDx=0;entryDy=0;entryPerimeter=0;endArrow=none;endFill=0;" parent="1" source="105" target="82" edge="1">
                    <mxGeometry relative="1" as="geometry"/>
                </mxCell>
                <mxCell id="114" value="" style="endArrow=none;html=1;rounded=0;entryX=0;entryY=0.5;entryDx=0;entryDy=0;" parent="1" target="105" edge="1">
                    <mxGeometry width="50" height="50" relative="1" as="geometry">
                        <mxPoint x="160" y="105" as="sourcePoint"/>
                        <mxPoint x="217" y="120" as="targetPoint"/>
                    </mxGeometry>
                </mxCell>
                <mxCell id="115" value="" style="endArrow=none;html=1;rounded=0;entryX=0.5;entryY=0;entryDx=0;entryDy=0;exitX=0.487;exitY=0;exitDx=0;exitDy=0;exitPerimeter=0;" parent="1" source="84" target="111" edge="1">
                    <mxGeometry width="50" height="50" relative="1" as="geometry">
                        <mxPoint x="458.5" y="215" as="sourcePoint"/>
                        <mxPoint x="460" y="190" as="targetPoint"/>
                    </mxGeometry>
                </mxCell>
                <mxCell id="116" value="" style="endArrow=none;html=1;rounded=0;exitX=1;exitY=0.871;exitDx=0;exitDy=0;exitPerimeter=0;entryX=0;entryY=0.5;entryDx=0;entryDy=0;" parent="1" target="101" edge="1">
                    <mxGeometry width="50" height="50" relative="1" as="geometry">
                        <mxPoint x="160" y="343.72" as="sourcePoint"/>
                        <mxPoint x="220" y="260" as="targetPoint"/>
                    </mxGeometry>
                </mxCell>
                <mxCell id="117" value="" style="endArrow=none;html=1;rounded=0;entryX=0;entryY=0.31;entryDx=0;entryDy=0;entryPerimeter=0;exitX=1;exitY=0.5;exitDx=0;exitDy=0;" parent="1" source="101" edge="1">
                    <mxGeometry width="50" height="50" relative="1" as="geometry">
                        <mxPoint x="200" y="310" as="sourcePoint"/>
                        <mxPoint x="340" y="344.20000000000005" as="targetPoint"/>
                    </mxGeometry>
                </mxCell>
                <mxCell id="118" value="" style="group" parent="1" vertex="1" connectable="0">
                    <mxGeometry x="80" y="365" width="40" height="20" as="geometry"/>
                </mxCell>
                <mxCell id="119" value="" style="group" parent="118" vertex="1" connectable="0">
                    <mxGeometry width="40" height="20" as="geometry"/>
                </mxCell>
                <mxCell id="120" value="" style="group" parent="119" vertex="1" connectable="0">
                    <mxGeometry width="40" height="20" as="geometry"/>
                </mxCell>
                <mxCell id="121" value="" style="endArrow=classic;html=1;strokeColor=#000000;fontFamily=Helvetica;fontSize=14;fontColor=#525252;rounded=0;" parent="120" edge="1">
                    <mxGeometry width="50" height="50" relative="1" as="geometry">
                        <mxPoint x="20" y="19" as="sourcePoint"/>
                        <mxPoint x="20" y="24" as="targetPoint"/>
                    </mxGeometry>
                </mxCell>
                <mxCell id="122" value="R" style="text;html=1;strokeColor=none;fillColor=none;align=center;verticalAlign=middle;whiteSpace=wrap;overflow=hidden;fontFamily=Helvetica;fontSize=10;fontColor=#000000;fontStyle=1" parent="120" vertex="1">
                    <mxGeometry width="40" height="20" as="geometry"/>
                </mxCell>
                <mxCell id="123" value="" style="ellipse;whiteSpace=wrap;html=1;strokeColor=#1C1C1C;fillColor=none;fontFamily=Tahoma;fontSize=14;fontColor=#525252;align=center;strokeWidth=2;" parent="120" vertex="1">
                    <mxGeometry x="29" y="10" width="10" height="10" as="geometry"/>
                </mxCell>
                <mxCell id="124" value="" style="endArrow=none;html=1;rounded=0;entryX=0.559;entryY=0.998;entryDx=0;entryDy=0;entryPerimeter=0;exitX=0.5;exitY=0;exitDx=0;exitDy=0;" parent="1" source="123" target="86" edge="1">
                    <mxGeometry width="50" height="50" relative="1" as="geometry">
                        <mxPoint x="150" y="410" as="sourcePoint"/>
                        <mxPoint x="200" y="360" as="targetPoint"/>
                    </mxGeometry>
                </mxCell>
                <mxCell id="125" value="" style="endArrow=none;html=1;rounded=0;entryX=0.5;entryY=1;entryDx=0;entryDy=0;exitX=0.559;exitY=-0.006;exitDx=0;exitDy=0;exitPerimeter=0;" parent="1" source="90" target="123" edge="1">
                    <mxGeometry width="50" height="50" relative="1" as="geometry">
                        <mxPoint x="70" y="450" as="sourcePoint"/>
                        <mxPoint x="120" y="400" as="targetPoint"/>
                    </mxGeometry>
                </mxCell>
                <mxCell id="126" value="" style="group;flipV=0;flipH=1;" parent="1" vertex="1" connectable="0">
                    <mxGeometry x="156" y="404" width="40" height="30" as="geometry"/>
                </mxCell>
                <mxCell id="127" value="R" style="text;html=1;strokeColor=none;fillColor=none;align=center;verticalAlign=middle;whiteSpace=wrap;overflow=hidden;fontFamily=Helvetica;fontSize=10;fontColor=#000000;fontStyle=1;flipV=1;flipH=1;" parent="126" vertex="1">
                    <mxGeometry y="1" width="40" height="20" as="geometry"/>
                </mxCell>
                <mxCell id="128" value="" style="ellipse;whiteSpace=wrap;html=1;strokeColor=#1C1C1C;fillColor=none;fontFamily=Tahoma;fontSize=14;fontColor=#525252;align=center;strokeWidth=2;" parent="126" vertex="1">
                    <mxGeometry x="15" y="17" width="10" height="10" as="geometry"/>
                </mxCell>
                <mxCell id="129" style="edgeStyle=none;rounded=0;html=1;startArrow=none;startFill=0;endArrow=classic;endFill=1;jettySize=auto;orthogonalLoop=1;strokeColor=#000000;fontFamily=Helvetica;fontSize=10;fontColor=#000000;targetPerimeterSpacing=0;endSize=8;sourcePerimeterSpacing=0;startSize=0;" parent="126" edge="1">
                    <mxGeometry relative="1" as="geometry">
                        <mxPoint x="4" y="10" as="targetPoint"/>
                        <mxPoint x="12" y="10" as="sourcePoint"/>
                    </mxGeometry>
                </mxCell>
                <mxCell id="130" value="" style="endArrow=none;html=1;rounded=0;entryX=0;entryY=0.5;entryDx=0;entryDy=0;exitX=0.999;exitY=0.177;exitDx=0;exitDy=0;exitPerimeter=0;" parent="1" source="90" target="128" edge="1">
                    <mxGeometry width="50" height="50" relative="1" as="geometry">
                        <mxPoint x="140" y="560" as="sourcePoint"/>
                        <mxPoint x="190" y="510" as="targetPoint"/>
                    </mxGeometry>
                </mxCell>
                <mxCell id="131" value="" style="endArrow=none;html=1;rounded=0;exitX=1;exitY=0.5;exitDx=0;exitDy=0;entryX=-0.003;entryY=0.827;entryDx=0;entryDy=0;entryPerimeter=0;" parent="1" source="128" target="84" edge="1">
                    <mxGeometry width="50" height="50" relative="1" as="geometry">
                        <mxPoint x="180" y="540" as="sourcePoint"/>
                        <mxPoint x="230" y="490" as="targetPoint"/>
                    </mxGeometry>
                </mxCell>
                <mxCell id="132" value="&lt;b&gt;&lt;font style=&quot;font-size: 14px;&quot;&gt;Komponenten-PKI&lt;/font&gt;&lt;/b&gt;" style="rounded=0;whiteSpace=wrap;html=1;fillColor=#f5f5f5;fontColor=#333333;strokeColor=#666666;" parent="1" vertex="1">
                    <mxGeometry x="339" y="520" width="377" height="60" as="geometry"/>
                </mxCell>
                <mxCell id="133" value="" style="group" parent="1" vertex="1" connectable="0">
                    <mxGeometry x="498" y="480" width="40" height="20" as="geometry"/>
                </mxCell>
                <mxCell id="134" value="" style="group" parent="133" vertex="1" connectable="0">
                    <mxGeometry width="40" height="20" as="geometry"/>
                </mxCell>
                <mxCell id="135" value="" style="group" parent="134" vertex="1" connectable="0">
                    <mxGeometry width="40" height="20" as="geometry"/>
                </mxCell>
                <mxCell id="136" value="" style="endArrow=classic;html=1;strokeColor=#000000;fontFamily=Helvetica;fontSize=14;fontColor=#525252;" parent="135" edge="1">
                    <mxGeometry width="50" height="50" relative="1" as="geometry">
                        <mxPoint x="20" y="19" as="sourcePoint"/>
                        <mxPoint x="20" y="24" as="targetPoint"/>
                    </mxGeometry>
                </mxCell>
                <mxCell id="137" value="R" style="text;html=1;strokeColor=none;fillColor=none;align=center;verticalAlign=middle;whiteSpace=wrap;overflow=hidden;fontFamily=Helvetica;fontSize=10;fontColor=#000000;fontStyle=1" parent="135" vertex="1">
                    <mxGeometry width="40" height="20" as="geometry"/>
                </mxCell>
                <mxCell id="138" value="" style="ellipse;whiteSpace=wrap;html=1;strokeColor=#1C1C1C;fillColor=none;fontFamily=Tahoma;fontSize=14;fontColor=#525252;align=center;strokeWidth=2;" parent="135" vertex="1">
                    <mxGeometry x="29" y="10" width="10" height="10" as="geometry"/>
                </mxCell>
                <mxCell id="139" style="edgeStyle=none;html=1;entryX=0.51;entryY=0;entryDx=0;entryDy=0;entryPerimeter=0;endArrow=none;endFill=0;" parent="1" source="138" target="132" edge="1">
                    <mxGeometry relative="1" as="geometry"/>
                </mxCell>
                <mxCell id="140" value="" style="group;flipH=1;" parent="1" vertex="1" connectable="0">
                    <mxGeometry x="169" y="238" width="22" height="21" as="geometry"/>
                </mxCell>
                <mxCell id="141" value="" style="shape=mxgraph.arrows2.wedgeArrow;html=1;bendable=0;startWidth=3.002680965147455;fillColor=strokeColor;defaultFillColor=invert;defaultGradientColor=invert;fontSize=11;endArrow=none;endFill=0;" parent="140" edge="1">
                    <mxGeometry width="100" height="100" relative="1" as="geometry">
                        <mxPoint x="5" y="-65.10000000000002" as="sourcePoint"/>
                        <mxPoint y="-65" as="targetPoint"/>
                    </mxGeometry>
                </mxCell>
                <mxCell id="142" value="" style="ellipse;whiteSpace=wrap;html=1;strokeColor=#1C1C1C;fillColor=none;fontFamily=Tahoma;fontSize=14;fontColor=#525252;align=center;strokeWidth=2;" parent="140" vertex="1">
                    <mxGeometry x="2" y="-59" width="10" height="10" as="geometry"/>
                </mxCell>
                <mxCell id="143" value="" style="group;flipH=1;" parent="1" vertex="1" connectable="0">
                    <mxGeometry x="316" y="238" width="22" height="21" as="geometry"/>
                </mxCell>
                <mxCell id="144" value="" style="shape=mxgraph.arrows2.wedgeArrow;html=1;bendable=0;startWidth=3.002680965147455;fillColor=strokeColor;defaultFillColor=invert;defaultGradientColor=invert;fontSize=11;endArrow=none;endFill=0;" parent="143" edge="1">
                    <mxGeometry width="100" height="100" relative="1" as="geometry">
                        <mxPoint x="5" y="4.899999999999977" as="sourcePoint"/>
                        <mxPoint y="5" as="targetPoint"/>
                    </mxGeometry>
                </mxCell>
                <mxCell id="145" value="" style="ellipse;whiteSpace=wrap;html=1;strokeColor=#1C1C1C;fillColor=none;fontFamily=Tahoma;fontSize=14;fontColor=#525252;align=center;strokeWidth=2;" parent="143" vertex="1">
                    <mxGeometry x="2" y="11" width="10" height="10" as="geometry"/>
                </mxCell>
                <mxCell id="146" value="&lt;b&gt;R&lt;/b&gt;" style="text;strokeColor=none;align=center;fillColor=none;html=1;verticalAlign=middle;whiteSpace=wrap;rounded=0;fontSize=11;spacing=2;" parent="143" vertex="1">
                    <mxGeometry x="1" width="21" height="9" as="geometry"/>
                </mxCell>
                <mxCell id="147" style="edgeStyle=none;html=1;entryX=-0.005;entryY=0.467;entryDx=0;entryDy=0;entryPerimeter=0;endArrow=none;endFill=0;" parent="1" source="142" target="152" edge="1">
                    <mxGeometry relative="1" as="geometry"/>
                </mxCell>
                <mxCell id="148" style="edgeStyle=none;html=1;exitX=0;exitY=0.5;exitDx=0;exitDy=0;endArrow=none;endFill=0;" parent="1" source="142" edge="1">
                    <mxGeometry relative="1" as="geometry">
                        <mxPoint x="160" y="184" as="targetPoint"/>
                    </mxGeometry>
                </mxCell>
                <mxCell id="149" style="edgeStyle=none;html=1;endArrow=none;endFill=0;entryX=1;entryY=0.5;entryDx=0;entryDy=0;entryPerimeter=0;" parent="1" source="145" target="87" edge="1">
                    <mxGeometry relative="1" as="geometry">
                        <mxPoint x="290" y="257" as="targetPoint"/>
                    </mxGeometry>
                </mxCell>
                <mxCell id="150" style="edgeStyle=none;html=1;endArrow=none;endFill=0;" parent="1" source="145" edge="1">
                    <mxGeometry relative="1" as="geometry">
                        <mxPoint x="340" y="254" as="targetPoint"/>
                    </mxGeometry>
                </mxCell>
                <mxCell id="151" style="edgeStyle=none;html=1;entryX=0.488;entryY=1.005;entryDx=0;entryDy=0;entryPerimeter=0;endArrow=none;endFill=0;" parent="1" source="111" target="82" edge="1">
                    <mxGeometry relative="1" as="geometry"/>
                </mxCell>
                <UserObject label="&lt;div style=&quot;font-size: 1px&quot;&gt;&lt;font style=&quot;font-size:14.11px;font-family:Arial;color:#000000;direction:ltr;letter-spacing:0px;line-height:120%;opacity:1&quot;&gt;Push-Provider&lt;/font&gt;&lt;/div&gt;" tags="Hintergrund" id="152">
                    <mxCell style="verticalAlign=middle;align=center;vsdxID=9;fillColor=#f5f5f5;shape=stencil(nZBLDoAgDERP0z3SIyjew0SURgSD+Lu9kMZoXLhwN9O+tukAlrNpJg1SzDH4QW/URgNYgZTkjA4UkwJUgGXng+6DX1zLfmoymdXo17xh5zmRJ6Q42BWCfc2oJfdAr+Yv+AP9Cb7OJ3H/2JG1HNGz/84klThPVCc=);strokeWidth=2;spacingTop=-1;spacingBottom=-1;spacingLeft=-1;spacingRight=-1;points=[[0.5,0,0],[1,0.5,0],[0.5,0.5,0],[0.5,0.5,0]];labelBackgroundColor=none;rounded=0;html=1;whiteSpace=wrap;strokeColor=#666666;fontColor=#333333;" parent="1" vertex="1">
                        <mxGeometry x="200" y="170" width="100" height="30" as="geometry"/>
                    </mxCell>
                </UserObject>
                <mxCell id="153" value="&lt;b&gt;R&lt;/b&gt;" style="text;strokeColor=none;align=center;fillColor=none;html=1;verticalAlign=middle;whiteSpace=wrap;rounded=0;fontSize=11;spacing=2;" parent="1" vertex="1">
                    <mxGeometry x="169.5" y="168" width="21" height="9" as="geometry"/>
                </mxCell>
                <mxCell id="154" value="" style="group;rotation=-180;" parent="1" vertex="1" connectable="0">
                    <mxGeometry x="245" y="215" width="40" height="20" as="geometry"/>
                </mxCell>
                <mxCell id="155" value="" style="group;rotation=-180;" parent="154" vertex="1" connectable="0">
                    <mxGeometry width="40" height="20" as="geometry"/>
                </mxCell>
                <mxCell id="156" value="" style="group;rotation=-180;" parent="155" vertex="1" connectable="0">
                    <mxGeometry width="40" height="20" as="geometry"/>
                </mxCell>
                <mxCell id="157" value="R" style="text;html=1;strokeColor=none;fillColor=none;align=center;verticalAlign=middle;whiteSpace=wrap;overflow=hidden;fontFamily=Helvetica;fontSize=10;fontColor=#000000;fontStyle=1;rotation=0;" parent="156" vertex="1">
                    <mxGeometry width="40" height="20" as="geometry"/>
                </mxCell>
                <mxCell id="158" value="" style="endArrow=classic;html=1;strokeColor=#000000;fontFamily=Helvetica;fontSize=14;fontColor=#525252;rounded=0;" parent="156" edge="1">
                    <mxGeometry width="50" height="50" relative="1" as="geometry">
                        <mxPoint x="20" y="1" as="sourcePoint"/>
                        <mxPoint x="20" y="-4" as="targetPoint"/>
                    </mxGeometry>
                </mxCell>
                <mxCell id="159" value="" style="ellipse;whiteSpace=wrap;html=1;strokeColor=#1C1C1C;fillColor=none;fontFamily=Tahoma;fontSize=14;fontColor=#525252;align=center;strokeWidth=2;rotation=-180;" parent="156" vertex="1">
                    <mxGeometry width="10" height="10" as="geometry"/>
                </mxCell>
                <mxCell id="160" style="edgeStyle=none;html=1;entryX=0.5;entryY=1;entryDx=0;entryDy=0;entryPerimeter=0;endArrow=none;endFill=0;" parent="1" source="159" target="152" edge="1">
                    <mxGeometry relative="1" as="geometry"/>
                </mxCell>
                <mxCell id="161" style="edgeStyle=none;html=1;entryX=0.469;entryY=0;entryDx=0;entryDy=0;entryPerimeter=0;endArrow=none;endFill=0;" parent="1" source="159" target="87" edge="1">
                    <mxGeometry relative="1" as="geometry"/>
                </mxCell>
            </root>
        </mxGraphModel>
    </diagram>
</mxfile>